<svg width="100" height="22" viewBox="0 0 100 22" fill="none" xmlns="http://www.w3.org/2000/svg">
<path d="M44.155 11.897C44.155 12.8093 44.0077 13.6395 43.713 14.3875C43.424 15.1355 43.0132 15.7787 42.4805 16.317C41.9478 16.8497 41.3103 17.2633 40.568 17.558C39.8257 17.8527 39.0012 18 38.0945 18H33.5045V5.794H38.0945C39.0012 5.794 39.8257 5.94133 40.568 6.236C41.3103 6.53067 41.9478 6.94717 42.4805 7.4855C43.0132 8.01817 43.424 8.66133 43.713 9.415C44.0077 10.163 44.155 10.9903 44.155 11.897ZM42.302 11.897C42.302 11.1717 42.2028 10.5228 42.0045 9.9505C41.8062 9.3725 41.5228 8.88517 41.1545 8.4885C40.7918 8.08617 40.3498 7.78017 39.8285 7.5705C39.3128 7.36083 38.7348 7.256 38.0945 7.256H35.3235V16.538H38.0945C38.7348 16.538 39.3128 16.4332 39.8285 16.2235C40.3498 16.0138 40.7918 15.7107 41.1545 15.314C41.5228 14.9117 41.8062 14.4243 42.0045 13.852C42.2028 13.2797 42.302 12.628 42.302 11.897Z" fill="#222222"/>
<path d="M51.7014 12.7215C51.7014 12.3928 51.6532 12.0897 51.5569 11.812C51.4662 11.5343 51.3302 11.2935 51.1489 11.0895C50.9676 10.8855 50.7466 10.7268 50.4859 10.6135C50.2252 10.5002 49.9249 10.4435 49.5849 10.4435C48.8879 10.4435 48.3382 10.6447 47.9359 11.047C47.5392 11.4493 47.2871 12.0075 47.1794 12.7215H51.7014ZM53.0699 16.7675C52.8659 17.0055 52.6307 17.2123 52.3644 17.388C52.0981 17.558 51.8147 17.6968 51.5144 17.8045C51.2141 17.9122 50.9024 17.9915 50.5794 18.0425C50.2621 18.0935 49.9476 18.119 49.6359 18.119C49.0409 18.119 48.4884 18.0198 47.9784 17.8215C47.4741 17.6175 47.0349 17.3228 46.6609 16.9375C46.2926 16.5465 46.0036 16.0648 45.7939 15.4925C45.5899 14.9145 45.4879 14.2515 45.4879 13.5035C45.4879 12.9028 45.5814 12.3447 45.7684 11.829C45.9554 11.3077 46.2217 10.8543 46.5674 10.469C46.9187 10.0837 47.3466 9.7805 47.8509 9.5595C48.3552 9.3385 48.9219 9.228 49.5509 9.228C50.0779 9.228 50.5624 9.31583 51.0044 9.4915C51.4521 9.6615 51.8374 9.91083 52.1604 10.2395C52.4834 10.5682 52.7356 10.9733 52.9169 11.455C53.1039 11.9367 53.1974 12.4863 53.1974 13.104C53.1974 13.359 53.1691 13.5318 53.1124 13.6225C53.0557 13.7075 52.9509 13.75 52.7979 13.75H47.1369C47.1539 14.2657 47.2276 14.7162 47.3579 15.1015C47.4882 15.4812 47.6667 15.7985 47.8934 16.0535C48.1257 16.3085 48.4006 16.4983 48.7179 16.623C49.0352 16.7477 49.3894 16.81 49.7804 16.81C50.1487 16.81 50.4661 16.7675 50.7324 16.6825C51.0044 16.5975 51.2367 16.5068 51.4294 16.4105C51.6277 16.3085 51.7921 16.215 51.9224 16.13C52.0584 16.045 52.1774 16.0025 52.2794 16.0025C52.4154 16.0025 52.5202 16.0535 52.5939 16.1555L53.0699 16.7675Z" fill="#222222"/>
<path d="M62.2767 9.364L58.7747 18H57.2787L53.7767 9.364H55.1452C55.2756 9.364 55.3832 9.39517 55.4682 9.4575C55.5532 9.51983 55.6099 9.59917 55.6382 9.6955L57.7037 14.9995C57.7774 15.2205 57.8397 15.4415 57.8907 15.6625C57.9474 15.8778 57.9984 16.0932 58.0437 16.3085C58.0891 16.0932 58.1401 15.8778 58.1967 15.6625C58.2534 15.4472 58.3214 15.2262 58.4007 14.9995L60.4917 9.6955C60.5257 9.59917 60.5852 9.51983 60.6702 9.4575C60.7552 9.39517 60.8572 9.364 60.9762 9.364H62.2767Z" fill="#222222"/>
<path d="M70.7791 7.307H66.9031V18H65.1011V7.307H61.2081V5.794H70.7791V7.307Z" fill="#222222"/>
<path d="M75.8567 12.7215C75.8567 12.3928 75.8085 12.0897 75.7122 11.812C75.6215 11.5343 75.4855 11.2935 75.3042 11.0895C75.1229 10.8855 74.9018 10.7268 74.6412 10.6135C74.3805 10.5002 74.0802 10.4435 73.7402 10.4435C73.0432 10.4435 72.4935 10.6447 72.0912 11.047C71.6945 11.4493 71.4423 12.0075 71.3347 12.7215H75.8567ZM77.2252 16.7675C77.0212 17.0055 76.786 17.2123 76.5197 17.388C76.2534 17.558 75.97 17.6968 75.6697 17.8045C75.3693 17.9122 75.0577 17.9915 74.7347 18.0425C74.4173 18.0935 74.1029 18.119 73.7912 18.119C73.1962 18.119 72.6437 18.0198 72.1337 17.8215C71.6293 17.6175 71.1902 17.3228 70.8162 16.9375C70.4478 16.5465 70.1588 16.0648 69.9492 15.4925C69.7452 14.9145 69.6432 14.2515 69.6432 13.5035C69.6432 12.9028 69.7367 12.3447 69.9237 11.829C70.1107 11.3077 70.377 10.8543 70.7227 10.469C71.074 10.0837 71.5018 9.7805 72.0062 9.5595C72.5105 9.3385 73.0772 9.228 73.7062 9.228C74.2332 9.228 74.7177 9.31583 75.1597 9.4915C75.6073 9.6615 75.9927 9.91083 76.3157 10.2395C76.6387 10.5682 76.8908 10.9733 77.0722 11.455C77.2592 11.9367 77.3527 12.4863 77.3527 13.104C77.3527 13.359 77.3243 13.5318 77.2677 13.6225C77.211 13.7075 77.1062 13.75 76.9532 13.75H71.2922C71.3092 14.2657 71.3829 14.7162 71.5132 15.1015C71.6435 15.4812 71.822 15.7985 72.0487 16.0535C72.281 16.3085 72.5558 16.4983 72.8732 16.623C73.1905 16.7477 73.5447 16.81 73.9357 16.81C74.304 16.81 74.6213 16.7675 74.8877 16.6825C75.1597 16.5975 75.392 16.5068 75.5847 16.4105C75.783 16.3085 75.9473 16.215 76.0777 16.13C76.2137 16.045 76.3327 16.0025 76.4347 16.0025C76.5707 16.0025 76.6755 16.0535 76.7492 16.1555L77.2252 16.7675Z" fill="#222222"/>
<path d="M83.7752 14.1665C83.1009 14.1892 82.5286 14.243 82.0582 14.328C81.5879 14.4073 81.2054 14.515 80.9107 14.651C80.6161 14.787 80.4036 14.9485 80.2732 15.1355C80.1429 15.3168 80.0777 15.5208 80.0777 15.7475C80.0777 15.9628 80.1117 16.1498 80.1797 16.3085C80.2534 16.4615 80.3497 16.589 80.4687 16.691C80.5934 16.7873 80.7379 16.8582 80.9022 16.9035C81.0666 16.9488 81.2451 16.9715 81.4377 16.9715C81.6927 16.9715 81.9251 16.946 82.1347 16.895C82.3501 16.844 82.5512 16.7732 82.7382 16.6825C82.9252 16.5862 83.1037 16.47 83.2737 16.334C83.4437 16.198 83.6109 16.0422 83.7752 15.8665V14.1665ZM78.9132 10.571C79.3949 10.112 79.9162 9.76917 80.4772 9.5425C81.0439 9.31583 81.6644 9.2025 82.3387 9.2025C82.8317 9.2025 83.2681 9.28467 83.6477 9.449C84.0274 9.60767 84.3476 9.8315 84.6082 10.1205C84.8689 10.4095 85.0644 10.7552 85.1947 11.1575C85.3307 11.5598 85.3987 12.0047 85.3987 12.492V18H84.6592C84.4949 18 84.3702 17.9745 84.2852 17.9235C84.2002 17.8668 84.1322 17.7648 84.0812 17.6175L83.9027 16.861C83.6817 17.065 83.4636 17.2463 83.2482 17.405C83.0329 17.558 82.8062 17.6912 82.5682 17.8045C82.3359 17.9122 82.0866 17.9943 81.8202 18.051C81.5539 18.1077 81.2592 18.136 80.9362 18.136C80.5962 18.136 80.2761 18.0907 79.9757 18C79.6811 17.9037 79.4232 17.7592 79.2022 17.5665C78.9812 17.3738 78.8056 17.133 78.6752 16.844C78.5506 16.555 78.4882 16.2178 78.4882 15.8325C78.4882 15.4925 78.5789 15.1667 78.7602 14.855C78.9472 14.5377 79.2476 14.2543 79.6612 14.005C80.0806 13.7557 80.6246 13.5517 81.2932 13.393C81.9676 13.2343 82.7949 13.1437 83.7752 13.121V12.492C83.7752 11.8403 83.6364 11.353 83.3587 11.03C83.0811 10.707 82.6731 10.5455 82.1347 10.5455C81.7721 10.5455 81.4661 10.5908 81.2167 10.6815C80.9731 10.7722 80.7606 10.8742 80.5792 10.9875C80.4036 11.0952 80.2477 11.1943 80.1117 11.285C79.9814 11.3757 79.8454 11.421 79.7037 11.421C79.5904 11.421 79.4912 11.3898 79.4062 11.3275C79.3269 11.2652 79.2617 11.1915 79.2107 11.1065L78.9132 10.571Z" fill="#222222"/>
<path d="M87.6176 18V9.364H88.6121C88.8445 9.364 88.989 9.4745 89.0456 9.6955L89.1646 10.52C89.482 10.1403 89.8333 9.8315 90.2186 9.5935C90.6096 9.34983 91.0658 9.228 91.5871 9.228C92.1595 9.228 92.6241 9.38667 92.9811 9.704C93.3381 10.0157 93.5988 10.4407 93.7631 10.979C93.8878 10.673 94.0493 10.4095 94.2476 10.1885C94.446 9.9675 94.667 9.78617 94.9106 9.6445C95.1543 9.50283 95.4121 9.398 95.6841 9.33C95.9618 9.262 96.2423 9.228 96.5256 9.228C96.9846 9.228 97.3926 9.30167 97.7496 9.449C98.1123 9.59067 98.4183 9.80033 98.6676 10.078C98.917 10.3557 99.1068 10.6985 99.2371 11.1065C99.3675 11.5145 99.4326 11.9792 99.4326 12.5005V18H97.7666V12.5005C97.7666 11.8545 97.625 11.3672 97.3416 11.0385C97.064 10.7098 96.656 10.5455 96.1176 10.5455C95.8796 10.5455 95.653 10.588 95.4376 10.673C95.2223 10.7523 95.0325 10.8742 94.8681 11.0385C94.7095 11.2028 94.582 11.4068 94.4856 11.6505C94.395 11.8942 94.3496 12.1775 94.3496 12.5005V18H92.6836V12.5005C92.6836 11.8318 92.5505 11.3388 92.2841 11.0215C92.0178 10.7042 91.6268 10.5455 91.1111 10.5455C90.7541 10.5455 90.4226 10.639 90.1166 10.826C89.8106 11.013 89.5301 11.268 89.2751 11.591V18H87.6176Z" fill="#222222"/>
<path d="M33 20H100V21H33V20Z" fill="#222222"/>
<path d="M0 4C0 1.79086 1.67147 0 3.73333 0H24.2667C26.3285 0 28 1.79086 28 4V18C28 20.2091 26.3285 22 24.2667 22H3.73333C1.67147 22 0 20.2091 0 18V4Z" fill="#222222"/>
<path d="M7.67947 11.24C7.504 11.332 7.31173 11.404 7.10267 11.456C7.31173 11.508 7.504 11.58 7.67947 11.672L9.71227 12.794C9.79813 12.838 9.85973 12.894 9.89707 12.962C9.9344 13.03 9.95307 13.104 9.95307 13.184V14.24L5.51227 11.756V11.156L9.95307 8.678V9.734C9.95307 9.814 9.9344 9.888 9.89707 9.956C9.85973 10.02 9.79813 10.076 9.71227 10.124L7.67947 11.24Z" fill="white"/>
<path d="M12.8099 15.518C12.7465 15.702 12.6438 15.84 12.5019 15.932C12.3638 16.024 12.2219 16.07 12.0763 16.07H11.4883L14.7587 7.106C14.8185 6.938 14.9099 6.81 15.0331 6.722C15.1563 6.63 15.3001 6.584 15.4643 6.584H16.0579L12.8099 15.518Z" fill="white"/>
<path d="M22.0311 11.156V11.756L17.5903 14.24V13.184C17.5903 13.104 17.609 13.03 17.6463 12.962C17.6837 12.894 17.7453 12.838 17.8311 12.794L19.8639 11.672C20.0394 11.58 20.2317 11.508 20.4407 11.456C20.2317 11.404 20.0394 11.332 19.8639 11.24L17.8311 10.124C17.7453 10.076 17.6837 10.02 17.6463 9.956C17.609 9.888 17.5903 9.814 17.5903 9.734V8.678L22.0311 11.156Z" fill="white"/>
</svg>
